<svg id="visual" viewBox="0 0 960 540" width="960" height="540" xmlns="http://www.w3.org/2000/svg" xmlns:xlink="http://www.w3.org/1999/xlink" version="1.1"><rect x="0" y="0" width="960" height="540" fill="#fff"></rect><defs><linearGradient id="grad1_0" x1="43.8%" y1="0%" x2="100%" y2="100%"><stop offset="14.444444444444446%" stop-color="#fbae3c" stop-opacity="1"></stop><stop offset="85.55555555555554%" stop-color="#fbae3c" stop-opacity="1"></stop></linearGradient></defs><defs><linearGradient id="grad1_1" x1="43.8%" y1="0%" x2="100%" y2="100%"><stop offset="14.444444444444446%" stop-color="#fbae3c" stop-opacity="1"></stop><stop offset="85.55555555555554%" stop-color="#ffffff" stop-opacity="1"></stop></linearGradient></defs><defs><linearGradient id="grad2_0" x1="0%" y1="0%" x2="56.3%" y2="100%"><stop offset="14.444444444444446%" stop-color="#fbae3c" stop-opacity="1"></stop><stop offset="85.55555555555554%" stop-color="#fbae3c" stop-opacity="1"></stop></linearGradient></defs><defs><linearGradient id="grad2_1" x1="0%" y1="0%" x2="56.3%" y2="100%"><stop offset="14.444444444444446%" stop-color="#ffffff" stop-opacity="1"></stop><stop offset="85.55555555555554%" stop-color="#fbae3c" stop-opacity="1"></stop></linearGradient></defs><g transform="translate(960, 0)"><path d="M0 459C-32.2 447.2 -64.4 435.5 -97.2 426C-130.1 416.6 -163.6 409.5 -187 388.3C-210.4 367.1 -223.8 331.7 -247.5 310.4C-271.2 289 -305.3 281.7 -330.7 263.7C-356.1 245.8 -372.9 217.2 -392.8 189.2C-412.8 161.1 -435.9 133.6 -447.5 102.1C-459.1 70.7 -459 35.3 -459 0L0 0Z" fill="#ffd69f"></path><path d="M0 229.5C-16.1 223.6 -32.2 217.7 -48.6 213C-65 208.3 -81.8 204.8 -93.5 194.2C-105.2 183.5 -111.9 165.9 -123.8 155.2C-135.6 144.5 -152.7 140.8 -165.4 131.9C-178.1 122.9 -186.4 108.6 -196.4 94.6C-206.4 80.6 -218 66.8 -223.7 51.1C-229.5 35.3 -229.5 17.7 -229.5 0L0 0Z" fill="#fbae3c"></path></g><g transform="translate(0, 540)"><path d="M0 -459C29.9 -438.2 59.9 -417.4 94.3 -413.4C128.8 -409.3 167.8 -422.1 199.2 -413.5C230.5 -405 254 -375.3 280.6 -351.8C307.1 -328.4 336.6 -311.2 356.5 -284.3C376.5 -257.4 386.9 -220.8 386.5 -186.1C386.1 -151.4 374.8 -118.6 385.1 -87.9C395.4 -57.2 427.2 -28.6 459 0L0 0Z" fill="#ffd69f"></path><path d="M0 -229.5C15 -219.1 29.9 -208.7 47.2 -206.7C64.4 -204.7 83.9 -211 99.6 -206.8C115.2 -202.5 127 -187.6 140.3 -175.9C153.5 -164.2 168.3 -155.6 178.3 -142.2C188.2 -128.7 193.5 -110.4 193.3 -93.1C193.1 -75.7 187.4 -59.3 192.5 -43.9C197.7 -28.6 213.6 -14.3 229.5 0L0 0Z" fill="#fbae3c"></path></g></svg>