<!DOCTYPE svg PUBLIC "-//W3C//DTD SVG 1.1//EN" "http://www.w3.org/Graphics/SVG/1.1/DTD/svg11.dtd">
<!-- Uploaded to: SVG Repo, www.svgrepo.com, Transformed by: SVG Repo Mixer Tools -->
<svg width="256px" height="256px" viewBox="-8.64 -8.64 41.28 41.28" xmlns="http://www.w3.org/2000/svg" xmlns:xlink="http://www.w3.org/1999/xlink" fill="#000000" transform="matrix(-1, 0, 0, 1, 0, 0)rotate(0)" stroke="#000000" stroke-width="0.00024000000000000003">
<g id="SVGRepo_bgCarrier" stroke-width="0" transform="translate(0,0), scale(1)">
<path transform="translate(-8.64, -8.64), scale(1.29)" d="M16,28.237583250871726C18.752936543911904,28.27323764498145,21.445549591942516,30.90471747692538,23.9671298712492,29.7994737275033C26.4418587490494,28.714765599767215,27.04995008304974,25.466998688883464,28.0488477598171,22.956405497555224C28.938637384174594,20.720040527866033,29.423891209896617,18.406640724148435,29.457570255867072,16C29.49160675809376,13.567816130000413,29.629234087522118,10.930504356668662,28.24513251311859,8.930269447288346C26.880946647300767,6.95881573164039,24.21669171822385,6.562478192810612,22.121177597769673,5.397809398510525C20.0636986331072,4.254280217923628,18.301218882819523,2.6197774560955422,16,2.1245297097734035C13.393388836155939,1.5635581680962263,10.246052474073021,0.7517792733504793,8.141862258847276,2.3893061794489387C5.984916793538089,4.067888376473328,7.104186864806402,7.70823876758052,5.764122773231227,10.090313527733082C4.446586511419617,12.432343207192735,0.6334238543716291,13.316909019686836,0.48500683371509723,15.999999999999996C0.3388691005855884,18.64188589629891,3.78909799990693,19.99487399595915,5.088757209403461,22.299608962344266C6.406605299750689,24.63659896096376,5.794545293269457,28.312162292480537,8.151134184960801,29.59463437343838C10.523683188671237,30.885792058468116,13.299101388028676,28.202602821055937,16,28.237583250871726" fill="#EDA6F4" strokewidth="0"/>
</g>
<g id="SVGRepo_tracerCarrier" stroke-linecap="round" stroke-linejoin="round" stroke="#CCCCCC" stroke-width="0.096"/>
<g id="SVGRepo_iconCarrier"> <defs> <polygon id="thunder-a" points="2.977 8.161 8.269 9.241 .218 18.519 1.882 19.604 12.128 8.161 5.893 6.809 8.821 .998 7.387 .185"/> <path id="thunder-c" d="M10.2577032,5.88540233 L13.3683613,6.4682972 C14.894984,6.75436548 15.5271239,8.59550311 14.4981974,9.75899885 L5.15432684,20.3249168 C3.62851509,22.0502834 0.875362777,20.253925 1.83997631,18.1623916 L4.9166534,11.4913543 L2.63023839,11.061225 C1.27422934,10.8061273 0.577759703,9.28698125 1.26946216,8.09308716 L5.3804761,0.997384038 C5.7381351,0.380056504 6.3975623,0 7.11101395,0 L10.1949866,0 C11.7353835,0 12.697534,1.66821829 11.9261411,3.00155082 L10.2577032,5.88540233 Z M10.1949866,2 L7.11101395,2 L3,9.09570312 L7.80692226,10 L3.65612945,19 L13,8.43408203 L7.11101395,7.33056641 L10.1949866,2 Z"/> </defs> <g fill="none" fill-rule="evenodd" transform="translate(4 2)"> <g transform="translate(2)"> <mask id="thunder-b" fill="#ffffff"> <use xlink:href="#thunder-a"/> </mask> <use fill="#7ed0ec" xlink:href="#thunder-a"/> <g fill="#7ed0ec" mask="url(#thunder-b)"> <rect width="24" height="24" transform="translate(-6 -2)"/> </g> </g> <mask id="thunder-d" fill="#ffffff"> <use xlink:href="#thunder-c"/> </mask> <use fill="#7ed0ec" fill-rule="nonzero" xlink:href="#thunder-c"/> <g fill="#7ed0ec" mask="url(#thunder-d)"> <rect width="24" height="24" transform="translate(-4 -2)"/> </g> </g> </g>
</svg>