<svg id="visual" viewBox="0 0 900 600" width="900" height="600" xmlns="http://www.w3.org/2000/svg" xmlns:xlink="http://www.w3.org/1999/xlink" version="1.1"><g stroke-width="1" stroke-linejoin="bevel"><path d="M463 282.1L484 290L488 280.3Z" fill="#342f00" stroke="#342f00"></path><path d="M488 280.3L498 234L463 282.1Z" fill="#281b00" stroke="#281b00"></path><path d="M452 345.7L493 335.7L484 290Z" fill="#ffeb3a" stroke="#ffeb3a"></path><path d="M484 290L575 323L488 280.3Z" fill="#281b00" stroke="#281b00"></path><path d="M488 280.3L542 218.4L498 234Z" fill="#aa9f18" stroke="#aa9f18"></path><path d="M463 282.1L452 345.7L484 290Z" fill="#281b00" stroke="#281b00"></path><path d="M406 220.1L407 269L463 282.1Z" fill="#5d5a00" stroke="#5d5a00"></path><path d="M463 282.1L423 344.1L452 345.7Z" fill="#281b00" stroke="#281b00"></path><path d="M407 269L423 344.1L463 282.1Z" fill="#aa9f18" stroke="#aa9f18"></path><path d="M423 344.1L439 354.7L452 345.7Z" fill="#464400" stroke="#464400"></path><path d="M452 345.7L495 376.4L493 335.7Z" fill="#767000" stroke="#767000"></path><path d="M552 217.1L542 218.4L598 277.1Z" fill="#e2d12f" stroke="#e2d12f"></path><path d="M479 182.7L406 220.1L498 234Z" fill="#e2d12f" stroke="#e2d12f"></path><path d="M498 234L406 220.1L463 282.1Z" fill="#e2d12f" stroke="#e2d12f"></path><path d="M413 382L451 373.6L439 354.7Z" fill="#464400" stroke="#464400"></path><path d="M439 354.7L451 373.6L452 345.7Z" fill="#767000" stroke="#767000"></path><path d="M451 373.6L495 376.4L452 345.7Z" fill="#342f00" stroke="#342f00"></path><path d="M598 277.1L542 218.4L488 280.3Z" fill="#281b00" stroke="#281b00"></path><path d="M542 218.4L479 182.7L498 234Z" fill="#5d5a00" stroke="#5d5a00"></path><path d="M575 323L484 290L493 335.7Z" fill="#767000" stroke="#767000"></path><path d="M542 218.4L514 153.4L479 182.7Z" fill="#000000" stroke="#000000"></path><path d="M479 182.7L410 199.6L406 220.1Z" fill="#000000" stroke="#000000"></path><path d="M532 386.7L575 323L493 335.7Z" fill="#000000" stroke="#000000"></path><path d="M397 371.7L413 382L423 344.1Z" fill="#281b00" stroke="#281b00"></path><path d="M423 344.1L413 382L439 354.7Z" fill="#000000" stroke="#000000"></path><path d="M451 373.6L462 410.4L495 376.4Z" fill="#000000" stroke="#000000"></path><path d="M502 409.4L532 386.7L495 376.4Z" fill="#90870b" stroke="#90870b"></path><path d="M495 376.4L532 386.7L493 335.7Z" fill="#464400" stroke="#464400"></path><path d="M340 328.9L397 371.7L423 344.1Z" fill="#342f00" stroke="#342f00"></path><path d="M340 328.9L423 344.1L407 269Z" fill="#e2d12f" stroke="#e2d12f"></path><path d="M356 202.1L358 222.4L406 220.1Z" fill="#464400" stroke="#464400"></path><path d="M406 220.1L358 222.4L407 269Z" fill="#5d5a00" stroke="#5d5a00"></path><path d="M417 174.3L408 181.3L410 199.6Z" fill="#ffeb3a" stroke="#ffeb3a"></path><path d="M479 182.7L417 174.3L410 199.6Z" fill="#ffeb3a" stroke="#ffeb3a"></path><path d="M575 323L598 277.1L488 280.3Z" fill="#e2d12f" stroke="#e2d12f"></path><path d="M491 147.6L451 160.1L479 182.7Z" fill="#464400" stroke="#464400"></path><path d="M479 182.7L451 160.1L417 174.3Z" fill="#c6b823" stroke="#c6b823"></path><path d="M605 246.9L574 197.4L552 217.1Z" fill="#767000" stroke="#767000"></path><path d="M552 217.1L574 197.4L542 218.4Z" fill="#281b00" stroke="#281b00"></path><path d="M413 382L462 410.4L451 373.6Z" fill="#ffeb3a" stroke="#ffeb3a"></path><path d="M356 202.1L406 220.1L410 199.6Z" fill="#e2d12f" stroke="#e2d12f"></path><path d="M462 410.4L502 409.4L495 376.4Z" fill="#342f00" stroke="#342f00"></path><path d="M574 197.4L514 153.4L542 218.4Z" fill="#90870b" stroke="#90870b"></path><path d="M598 277.1L605 246.9L552 217.1Z" fill="#000000" stroke="#000000"></path><path d="M514 153.4L491 147.6L479 182.7Z" fill="#464400" stroke="#464400"></path><path d="M566 440.6L569 380.6L532 386.7Z" fill="#ffeb3a" stroke="#ffeb3a"></path><path d="M532 386.7L569 380.6L575 323Z" fill="#e2d12f" stroke="#e2d12f"></path><path d="M575 323L623 314.1L598 277.1Z" fill="#c6b823" stroke="#c6b823"></path><path d="M363 174.3L356 202.1L410 199.6Z" fill="#464400" stroke="#464400"></path><path d="M363 174.3L410 199.6L408 181.3Z" fill="#c6b823" stroke="#c6b823"></path><path d="M334 315.9L407 269L358 222.4Z" fill="#281b00" stroke="#281b00"></path><path d="M334 315.9L340 328.9L407 269Z" fill="#e2d12f" stroke="#e2d12f"></path><path d="M314 322.1L334 315.9L291 310Z" fill="#464400" stroke="#464400"></path><path d="M569 380.6L619 323.9L575 323Z" fill="#281b00" stroke="#281b00"></path><path d="M598 277.1L682 288.1L605 246.9Z" fill="#90870b" stroke="#90870b"></path><path d="M619 323.9L623 314.1L575 323Z" fill="#342f00" stroke="#342f00"></path><path d="M392 430.9L437 427.9L413 382Z" fill="#5d5a00" stroke="#5d5a00"></path><path d="M413 382L437 427.9L462 410.4Z" fill="#5d5a00" stroke="#5d5a00"></path><path d="M503 474.7L519 465.4L502 409.4Z" fill="#000000" stroke="#000000"></path><path d="M392 430.9L413 382L397 371.7Z" fill="#281b00" stroke="#281b00"></path><path d="M375 143.4L408 181.3L417 174.3Z" fill="#281b00" stroke="#281b00"></path><path d="M375 143.4L363 174.3L408 181.3Z" fill="#e2d12f" stroke="#e2d12f"></path><path d="M375 143.4L417 174.3L451 160.1Z" fill="#e2d12f" stroke="#e2d12f"></path><path d="M363 174.3L344 198.4L356 202.1Z" fill="#90870b" stroke="#90870b"></path><path d="M356 202.1L344 198.4L358 222.4Z" fill="#342f00" stroke="#342f00"></path><path d="M687 258L622 223.4L605 246.9Z" fill="#aa9f18" stroke="#aa9f18"></path><path d="M605 246.9L622 223.4L574 197.4Z" fill="#342f00" stroke="#342f00"></path><path d="M574 197.4L552 134.3L514 153.4Z" fill="#767000" stroke="#767000"></path><path d="M334 315.9L321 330.9L340 328.9Z" fill="#767000" stroke="#767000"></path><path d="M340 328.9L312 394L397 371.7Z" fill="#c6b823" stroke="#c6b823"></path><path d="M314 322.1L321 330.9L334 315.9Z" fill="#aa9f18" stroke="#aa9f18"></path><path d="M553 131.7L552 134.3L611 164.3Z" fill="#464400" stroke="#464400"></path><path d="M514 153.4L528 118.6L491 147.6Z" fill="#c6b823" stroke="#c6b823"></path><path d="M455 76.6L375 143.4L451 160.1Z" fill="#c6b823" stroke="#c6b823"></path><path d="M300 243.3L334 315.9L358 222.4Z" fill="#281b00" stroke="#281b00"></path><path d="M611 164.3L552 134.3L574 197.4Z" fill="#c6b823" stroke="#c6b823"></path><path d="M552 134.3L528 118.6L514 153.4Z" fill="#aa9f18" stroke="#aa9f18"></path><path d="M479 102.9L451 160.1L491 147.6Z" fill="#90870b" stroke="#90870b"></path><path d="M300 128.7L278 175.1L344 198.4Z" fill="#281b00" stroke="#281b00"></path><path d="M553 131.7L528 118.6L552 134.3Z" fill="#ffeb3a" stroke="#ffeb3a"></path><path d="M312 394L340 328.9L321 330.9Z" fill="#767000" stroke="#767000"></path><path d="M316 416.3L392 430.9L397 371.7Z" fill="#c6b823" stroke="#c6b823"></path><path d="M528 118.6L479 102.9L491 147.6Z" fill="#5d5a00" stroke="#5d5a00"></path><path d="M622 223.4L611 164.3L574 197.4Z" fill="#000000" stroke="#000000"></path><path d="M298 231.4L358 222.4L344 198.4Z" fill="#281b00" stroke="#281b00"></path><path d="M298 231.4L300 243.3L358 222.4Z" fill="#767000" stroke="#767000"></path><path d="M569 380.6L624 385.4L619 323.9Z" fill="#c6b823" stroke="#c6b823"></path><path d="M619 323.9L649 360L623 314.1Z" fill="#464400" stroke="#464400"></path><path d="M623 314.1L682 288.1L598 277.1Z" fill="#464400" stroke="#464400"></path><path d="M566 440.6L624 385.4L569 380.6Z" fill="#aa9f18" stroke="#aa9f18"></path><path d="M566 440.6L532 386.7L502 409.4Z" fill="#5d5a00" stroke="#5d5a00"></path><path d="M502 409.4L462 410.4L503 474.7Z" fill="#767000" stroke="#767000"></path><path d="M519 465.4L566 440.6L502 409.4Z" fill="#767000" stroke="#767000"></path><path d="M272 208.6L298 231.4L278 175.1Z" fill="#aa9f18" stroke="#aa9f18"></path><path d="M624 385.4L643 359.7L619 323.9Z" fill="#90870b" stroke="#90870b"></path><path d="M300 243.3L291 310L334 315.9Z" fill="#767000" stroke="#767000"></path><path d="M314 322.1L297 366.7L321 330.9Z" fill="#767000" stroke="#767000"></path><path d="M245 235.1L291 310L300 243.3Z" fill="#000000" stroke="#000000"></path><path d="M503 474.7L462 410.4L466 488.1Z" fill="#281b00" stroke="#281b00"></path><path d="M659 368.6L649 360L643 359.7Z" fill="#767000" stroke="#767000"></path><path d="M643 359.7L649 360L619 323.9Z" fill="#281b00" stroke="#281b00"></path><path d="M622 223.4L629 152.3L611 164.3Z" fill="#c6b823" stroke="#c6b823"></path><path d="M466 488.1L462 410.4L437 427.9Z" fill="#464400" stroke="#464400"></path><path d="M519 465.4L544 470.6L566 440.6Z" fill="#90870b" stroke="#90870b"></path><path d="M291 310L297 366.7L314 322.1Z" fill="#000000" stroke="#000000"></path><path d="M297 366.7L312 394L321 330.9Z" fill="#342f00" stroke="#342f00"></path><path d="M685 224.6L629 152.3L622 223.4Z" fill="#90870b" stroke="#90870b"></path><path d="M611 164.3L631 101.4L553 131.7Z" fill="#90870b" stroke="#90870b"></path><path d="M553 131.7L559 89.9L528 118.6Z" fill="#5d5a00" stroke="#5d5a00"></path><path d="M542 517.6L544 470.6L519 465.4Z" fill="#000000" stroke="#000000"></path><path d="M669 416.4L659 368.6L624 385.4Z" fill="#281b00" stroke="#281b00"></path><path d="M624 385.4L659 368.6L643 359.7Z" fill="#000000" stroke="#000000"></path><path d="M629 432.9L624 385.4L566 440.6Z" fill="#ffeb3a" stroke="#ffeb3a"></path><path d="M692 328.9L682 288.1L623 314.1Z" fill="#767000" stroke="#767000"></path><path d="M455 76.6L354 115.6L375 143.4Z" fill="#c6b823" stroke="#c6b823"></path><path d="M375 143.4L354 115.6L363 174.3Z" fill="#aa9f18" stroke="#aa9f18"></path><path d="M457 71.4L455 76.6L479 102.9Z" fill="#90870b" stroke="#90870b"></path><path d="M479 102.9L455 76.6L451 160.1Z" fill="#464400" stroke="#464400"></path><path d="M559 89.9L479 102.9L528 118.6Z" fill="#464400" stroke="#464400"></path><path d="M364 468.6L443 484.4L392 430.9Z" fill="#342f00" stroke="#342f00"></path><path d="M392 430.9L443 484.4L437 427.9Z" fill="#aa9f18" stroke="#aa9f18"></path><path d="M503 474.7L542 517.6L519 465.4Z" fill="#767000" stroke="#767000"></path><path d="M692 328.9L623 314.1L649 360Z" fill="#767000" stroke="#767000"></path><path d="M443 484.4L466 488.1L437 427.9Z" fill="#aa9f18" stroke="#aa9f18"></path><path d="M586 81.7L559 89.9L553 131.7Z" fill="#342f00" stroke="#342f00"></path><path d="M315 422.3L316 416.3L287 436.3Z" fill="#e2d12f" stroke="#e2d12f"></path><path d="M312 394L316 416.3L397 371.7Z" fill="#281b00" stroke="#281b00"></path><path d="M512 0L457 71.4L479 102.9Z" fill="#000000" stroke="#000000"></path><path d="M379 48.9L362 59.6L354 115.6Z" fill="#c6b823" stroke="#c6b823"></path><path d="M688 133.3L635 141.6L629 152.3Z" fill="#000000" stroke="#000000"></path><path d="M629 152.3L635 141.6L611 164.3Z" fill="#ffeb3a" stroke="#ffeb3a"></path><path d="M682 288.1L687 258L605 246.9Z" fill="#ffeb3a" stroke="#ffeb3a"></path><path d="M287 436.3L316 416.3L312 394Z" fill="#90870b" stroke="#90870b"></path><path d="M316 416.3L315 422.3L392 430.9Z" fill="#aa9f18" stroke="#aa9f18"></path><path d="M278 175.1L298 231.4L344 198.4Z" fill="#767000" stroke="#767000"></path><path d="M298 231.4L245 235.1L300 243.3Z" fill="#5d5a00" stroke="#5d5a00"></path><path d="M291 310L268 377.7L297 366.7Z" fill="#e2d12f" stroke="#e2d12f"></path><path d="M625 457.6L629 432.9L566 440.6Z" fill="#000000" stroke="#000000"></path><path d="M687 258L685 224.6L622 223.4Z" fill="#aa9f18" stroke="#aa9f18"></path><path d="M315 422.3L364 468.6L392 430.9Z" fill="#767000" stroke="#767000"></path><path d="M659 368.6L692 328.9L649 360Z" fill="#342f00" stroke="#342f00"></path><path d="M682 288.1L717 310.1L687 258Z" fill="#000000" stroke="#000000"></path><path d="M719 220L714 213.1L685 224.6Z" fill="#281b00" stroke="#281b00"></path><path d="M697 372L692 328.9L659 368.6Z" fill="#000000" stroke="#000000"></path><path d="M300 128.7L344 198.4L363 174.3Z" fill="#767000" stroke="#767000"></path><path d="M464 514.1L477 508.3L466 488.1Z" fill="#5d5a00" stroke="#5d5a00"></path><path d="M466 488.1L477 508.3L503 474.7Z" fill="#ffeb3a" stroke="#ffeb3a"></path><path d="M544 470.6L625 457.6L566 440.6Z" fill="#e2d12f" stroke="#e2d12f"></path><path d="M464 514.1L466 488.1L443 484.4Z" fill="#281b00" stroke="#281b00"></path><path d="M631 101.4L586 81.7L553 131.7Z" fill="#464400" stroke="#464400"></path><path d="M512 0L426 30.7L457 71.4Z" fill="#ffeb3a" stroke="#ffeb3a"></path><path d="M204 337.9L268 377.7L291 310Z" fill="#c6b823" stroke="#c6b823"></path><path d="M297 366.7L268 377.7L312 394Z" fill="#281b00" stroke="#281b00"></path><path d="M318 469.1L365 483.4L364 468.6Z" fill="#ffeb3a" stroke="#ffeb3a"></path><path d="M364 468.6L394 511.6L443 484.4Z" fill="#5d5a00" stroke="#5d5a00"></path><path d="M318 469.1L364 468.6L315 422.3Z" fill="#aa9f18" stroke="#aa9f18"></path><path d="M542 517.6L625 457.6L544 470.6Z" fill="#767000" stroke="#767000"></path><path d="M629 432.9L669 416.4L624 385.4Z" fill="#281b00" stroke="#281b00"></path><path d="M278 175.1L250 192.4L272 208.6Z" fill="#464400" stroke="#464400"></path><path d="M300 128.7L273 168.3L278 175.1Z" fill="#ffeb3a" stroke="#ffeb3a"></path><path d="M335 71.7L300 128.7L354 115.6Z" fill="#c6b823" stroke="#c6b823"></path><path d="M354 115.6L300 128.7L363 174.3Z" fill="#90870b" stroke="#90870b"></path><path d="M448 543.3L464 514.1L443 484.4Z" fill="#000000" stroke="#000000"></path><path d="M477 508.3L542 517.6L503 474.7Z" fill="#000000" stroke="#000000"></path><path d="M250 192.4L245 235.1L272 208.6Z" fill="#281b00" stroke="#281b00"></path><path d="M272 208.6L245 235.1L298 231.4Z" fill="#767000" stroke="#767000"></path><path d="M656 453.7L669 416.4L629 432.9Z" fill="#c6b823" stroke="#c6b823"></path><path d="M669 416.4L679 401.9L659 368.6Z" fill="#aa9f18" stroke="#aa9f18"></path><path d="M688 133.3L631 101.4L635 141.6Z" fill="#e2d12f" stroke="#e2d12f"></path><path d="M635 141.6L631 101.4L611 164.3Z" fill="#c6b823" stroke="#c6b823"></path><path d="M679 401.9L697 372L659 368.6Z" fill="#c6b823" stroke="#c6b823"></path><path d="M692 328.9L717 310.1L682 288.1Z" fill="#464400" stroke="#464400"></path><path d="M216 202L202 134.7L188 193.3Z" fill="#ffeb3a" stroke="#ffeb3a"></path><path d="M273 168.3L250 192.4L278 175.1Z" fill="#c6b823" stroke="#c6b823"></path><path d="M742 334L717 310.1L692 328.9Z" fill="#464400" stroke="#464400"></path><path d="M268 377.7L287 436.3L312 394Z" fill="#c6b823" stroke="#c6b823"></path><path d="M382 524.4L394 511.6L366 519.4Z" fill="#000000" stroke="#000000"></path><path d="M365 483.4L394 511.6L364 468.6Z" fill="#767000" stroke="#767000"></path><path d="M287 436.3L318 469.1L315 422.3Z" fill="#5d5a00" stroke="#5d5a00"></path><path d="M472 567.1L477 508.3L464 514.1Z" fill="#90870b" stroke="#90870b"></path><path d="M472 567.1L542 517.6L477 508.3Z" fill="#000000" stroke="#000000"></path><path d="M719 220L685 224.6L687 258Z" fill="#000000" stroke="#000000"></path><path d="M685 224.6L688 133.3L629 152.3Z" fill="#5d5a00" stroke="#5d5a00"></path><path d="M379 48.9L354 115.6L455 76.6Z" fill="#000000" stroke="#000000"></path><path d="M379 48.9L455 76.6L409 31.9Z" fill="#342f00" stroke="#342f00"></path><path d="M684 479.4L656 453.7L625 457.6Z" fill="#e2d12f" stroke="#e2d12f"></path><path d="M625 457.6L656 453.7L629 432.9Z" fill="#281b00" stroke="#281b00"></path><path d="M669 416.4L692 408.7L679 401.9Z" fill="#c6b823" stroke="#c6b823"></path><path d="M679 401.9L692 408.7L697 372Z" fill="#464400" stroke="#464400"></path><path d="M737 222.4L719 220L687 258Z" fill="#5d5a00" stroke="#5d5a00"></path><path d="M426 30.7L455 76.6L457 71.4Z" fill="#464400" stroke="#464400"></path><path d="M684 479.4L692 408.7L669 416.4Z" fill="#e2d12f" stroke="#e2d12f"></path><path d="M697 372L742 334L692 328.9Z" fill="#c6b823" stroke="#c6b823"></path><path d="M314 16.7L335 71.7L362 59.6Z" fill="#aa9f18" stroke="#aa9f18"></path><path d="M362 59.6L335 71.7L354 115.6Z" fill="#aa9f18" stroke="#aa9f18"></path><path d="M202 134.7L250 192.4L273 168.3Z" fill="#281b00" stroke="#281b00"></path><path d="M512 0L479 102.9L559 89.9Z" fill="#aa9f18" stroke="#aa9f18"></path><path d="M426 30.7L409 31.9L455 76.6Z" fill="#aa9f18" stroke="#aa9f18"></path><path d="M238 74.4L247 95.9L335 71.7Z" fill="#e2d12f" stroke="#e2d12f"></path><path d="M724 121.6L688 133.3L739 136.9Z" fill="#464400" stroke="#464400"></path><path d="M714 213.1L688 133.3L685 224.6Z" fill="#342f00" stroke="#342f00"></path><path d="M366 519.4L394 511.6L365 483.4Z" fill="#90870b" stroke="#90870b"></path><path d="M394 511.6L448 543.3L443 484.4Z" fill="#aa9f18" stroke="#aa9f18"></path><path d="M318 469.1L366 519.4L365 483.4Z" fill="#90870b" stroke="#90870b"></path><path d="M382 524.4L448 543.3L394 511.6Z" fill="#767000" stroke="#767000"></path><path d="M717 310.1L737 222.4L687 258Z" fill="#767000" stroke="#767000"></path><path d="M719 220L737 222.4L714 213.1Z" fill="#281b00" stroke="#281b00"></path><path d="M247 95.9L273 168.3L300 128.7Z" fill="#aa9f18" stroke="#aa9f18"></path><path d="M250 192.4L216 202L245 235.1Z" fill="#342f00" stroke="#342f00"></path><path d="M245 235.1L204 337.9L291 310Z" fill="#c6b823" stroke="#c6b823"></path><path d="M764 360.6L742 334L697 372Z" fill="#c6b823" stroke="#c6b823"></path><path d="M717 310.1L766 238.3L737 222.4Z" fill="#c6b823" stroke="#c6b823"></path><path d="M631 101.4L618 43.7L586 81.7Z" fill="#e2d12f" stroke="#e2d12f"></path><path d="M527 0L512 0L559 89.9Z" fill="#c6b823" stroke="#c6b823"></path><path d="M660 59.7L618 43.7L631 101.4Z" fill="#342f00" stroke="#342f00"></path><path d="M169 243.9L204 337.9L245 235.1Z" fill="#342f00" stroke="#342f00"></path><path d="M268 377.7L222 424.7L287 436.3Z" fill="#464400" stroke="#464400"></path><path d="M527 0L559 89.9L588 0Z" fill="#281b00" stroke="#281b00"></path><path d="M426 30.7L395 -6.1L409 31.9Z" fill="#767000" stroke="#767000"></path><path d="M204 337.9L205 372L268 377.7Z" fill="#e2d12f" stroke="#e2d12f"></path><path d="M287 436.3L245 469.3L318 469.1Z" fill="#464400" stroke="#464400"></path><path d="M318 469.1L354 574.3L366 519.4Z" fill="#e2d12f" stroke="#e2d12f"></path><path d="M588 0L559 89.9L586 81.7Z" fill="#aa9f18" stroke="#aa9f18"></path><path d="M457 600L472 567.1L448 543.3Z" fill="#aa9f18" stroke="#aa9f18"></path><path d="M448 543.3L472 567.1L464 514.1Z" fill="#464400" stroke="#464400"></path><path d="M646 542.3L684 479.4L625 457.6Z" fill="#aa9f18" stroke="#aa9f18"></path><path d="M408 578.3L448 543.3L382 524.4Z" fill="#c6b823" stroke="#c6b823"></path><path d="M688 133.3L660 59.7L631 101.4Z" fill="#c6b823" stroke="#c6b823"></path><path d="M618 43.7L588 0L586 81.7Z" fill="#ffeb3a" stroke="#ffeb3a"></path><path d="M724 121.6L660 59.7L688 133.3Z" fill="#90870b" stroke="#90870b"></path><path d="M646 542.3L625 457.6L542 517.6Z" fill="#000000" stroke="#000000"></path><path d="M656 453.7L684 479.4L669 416.4Z" fill="#000000" stroke="#000000"></path><path d="M764 393.7L764 360.6L697 372Z" fill="#5d5a00" stroke="#5d5a00"></path><path d="M205 372L222 424.7L268 377.7Z" fill="#c6b823" stroke="#c6b823"></path><path d="M764 360.6L768 294.7L742 334Z" fill="#5d5a00" stroke="#5d5a00"></path><path d="M742 334L768 294.7L717 310.1Z" fill="#342f00" stroke="#342f00"></path><path d="M768 294.7L766 238.3L717 310.1Z" fill="#c6b823" stroke="#c6b823"></path><path d="M753 178.6L688 133.3L714 213.1Z" fill="#5d5a00" stroke="#5d5a00"></path><path d="M353 0L362 59.6L379 48.9Z" fill="#464400" stroke="#464400"></path><path d="M335 71.7L247 95.9L300 128.7Z" fill="#000000" stroke="#000000"></path><path d="M753 178.6L714 213.1L737 222.4Z" fill="#ffeb3a" stroke="#ffeb3a"></path><path d="M766 238.3L753 178.6L737 222.4Z" fill="#767000" stroke="#767000"></path><path d="M227 450.7L245 469.3L287 436.3Z" fill="#000000" stroke="#000000"></path><path d="M354 574.3L408 578.3L382 524.4Z" fill="#000000" stroke="#000000"></path><path d="M512 0L395 -6.1L426 30.7Z" fill="#000000" stroke="#000000"></path><path d="M409 31.9L395 -6.1L379 48.9Z" fill="#281b00" stroke="#281b00"></path><path d="M600 -42.1L395 -6.1L512 0Z" fill="#c6b823" stroke="#c6b823"></path><path d="M665 10.7L629 23.9L660 59.7Z" fill="#ffeb3a" stroke="#ffeb3a"></path><path d="M660 59.7L629 23.9L618 43.7Z" fill="#90870b" stroke="#90870b"></path><path d="M764 393.7L697 372L692 408.7Z" fill="#ffeb3a" stroke="#ffeb3a"></path><path d="M753 178.6L739 136.9L688 133.3Z" fill="#5d5a00" stroke="#5d5a00"></path><path d="M773 48.6L699 0L660 59.7Z" fill="#000000" stroke="#000000"></path><path d="M202 134.7L216 202L250 192.4Z" fill="#90870b" stroke="#90870b"></path><path d="M216 202L173 234.4L245 235.1Z" fill="#5d5a00" stroke="#5d5a00"></path><path d="M204 337.9L191 382.6L205 372Z" fill="#000000" stroke="#000000"></path><path d="M180 428.6L227 450.7L222 424.7Z" fill="#000000" stroke="#000000"></path><path d="M222 424.7L227 450.7L287 436.3Z" fill="#281b00" stroke="#281b00"></path><path d="M114 354.9L191 382.6L204 337.9Z" fill="#000000" stroke="#000000"></path><path d="M205 372L204 414.7L222 424.7Z" fill="#767000" stroke="#767000"></path><path d="M591 0L588 0L618 43.7Z" fill="#5d5a00" stroke="#5d5a00"></path><path d="M527 0L600 -42.1L512 0Z" fill="#000000" stroke="#000000"></path><path d="M191 382.6L204 414.7L205 372Z" fill="#000000" stroke="#000000"></path><path d="M629 23.9L591 0L618 43.7Z" fill="#aa9f18" stroke="#aa9f18"></path><path d="M588 0L600 -42.1L527 0Z" fill="#5d5a00" stroke="#5d5a00"></path><path d="M354 574.3L382 524.4L366 519.4Z" fill="#aa9f18" stroke="#aa9f18"></path><path d="M172 215.4L173 234.4L216 202Z" fill="#5d5a00" stroke="#5d5a00"></path><path d="M395 -6.1L353 0L379 48.9Z" fill="#464400" stroke="#464400"></path><path d="M168 233L169 243.9L173 234.4Z" fill="#767000" stroke="#767000"></path><path d="M173 234.4L169 243.9L245 235.1Z" fill="#aa9f18" stroke="#aa9f18"></path><path d="M180 428.6L229 467.4L227 450.7Z" fill="#5d5a00" stroke="#5d5a00"></path><path d="M227 450.7L229 467.4L245 469.3Z" fill="#90870b" stroke="#90870b"></path><path d="M234 554.1L354 574.3L318 469.1Z" fill="#e2d12f" stroke="#e2d12f"></path><path d="M353 0L314 16.7L362 59.6Z" fill="#e2d12f" stroke="#e2d12f"></path><path d="M723 473.3L764 393.7L692 408.7Z" fill="#767000" stroke="#767000"></path><path d="M819 321L799 284.9L768 294.7Z" fill="#342f00" stroke="#342f00"></path><path d="M247 95.9L202 134.7L273 168.3Z" fill="#c6b823" stroke="#c6b823"></path><path d="M188 193.3L172 215.4L216 202Z" fill="#ffeb3a" stroke="#ffeb3a"></path><path d="M238 74.4L202 134.7L247 95.9Z" fill="#464400" stroke="#464400"></path><path d="M171 173.3L172 215.4L188 193.3Z" fill="#5d5a00" stroke="#5d5a00"></path><path d="M172 215.4L168 233L173 234.4Z" fill="#90870b" stroke="#90870b"></path><path d="M592 580.3L646 542.3L542 517.6Z" fill="#5d5a00" stroke="#5d5a00"></path><path d="M684 479.4L723 473.3L692 408.7Z" fill="#342f00" stroke="#342f00"></path><path d="M592 580.3L542 517.6L561 601.3Z" fill="#464400" stroke="#464400"></path><path d="M741 486.6L723 473.3L741 500.1Z" fill="#464400" stroke="#464400"></path><path d="M314 16.7L238 74.4L335 71.7Z" fill="#c6b823" stroke="#c6b823"></path><path d="M815 334.6L778 371L829 395.6Z" fill="#e2d12f" stroke="#e2d12f"></path><path d="M764 393.7L778 371L764 360.6Z" fill="#aa9f18" stroke="#aa9f18"></path><path d="M768 294.7L799 284.9L766 238.3Z" fill="#aa9f18" stroke="#aa9f18"></path><path d="M228 520.6L318 469.1L245 469.3Z" fill="#e2d12f" stroke="#e2d12f"></path><path d="M457 600L448 543.3L408 578.3Z" fill="#464400" stroke="#464400"></path><path d="M457 600L469 600L472 567.1Z" fill="#ffeb3a" stroke="#ffeb3a"></path><path d="M412 600L457 600L408 578.3Z" fill="#342f00" stroke="#342f00"></path><path d="M561 601.3L542 517.6L472 567.1Z" fill="#ffeb3a" stroke="#ffeb3a"></path><path d="M178 135.3L171 173.3L202 134.7Z" fill="#90870b" stroke="#90870b"></path><path d="M202 134.7L171 173.3L188 193.3Z" fill="#342f00" stroke="#342f00"></path><path d="M126 262.4L140 263.1L168 233Z" fill="#281b00" stroke="#281b00"></path><path d="M815 334.6L768 294.7L764 360.6Z" fill="#ffeb3a" stroke="#ffeb3a"></path><path d="M766 238.3L798 204.6L753 178.6Z" fill="#90870b" stroke="#90870b"></path><path d="M753 178.6L757 115.3L739 136.9Z" fill="#ffeb3a" stroke="#ffeb3a"></path><path d="M399 605.1L412 600L408 578.3Z" fill="#e2d12f" stroke="#e2d12f"></path><path d="M816 176.4L757 115.3L753 178.6Z" fill="#464400" stroke="#464400"></path><path d="M739 136.9L757 115.3L724 121.6Z" fill="#ffeb3a" stroke="#ffeb3a"></path><path d="M314 16.7L279 0L238 74.4Z" fill="#aa9f18" stroke="#aa9f18"></path><path d="M353 0L306 0L314 16.7Z" fill="#342f00" stroke="#342f00"></path><path d="M225 -35.1L306 0L353 0Z" fill="#464400" stroke="#464400"></path><path d="M592 580.3L631 571.1L646 542.3Z" fill="#281b00" stroke="#281b00"></path><path d="M646 542.3L678 547.1L684 479.4Z" fill="#281b00" stroke="#281b00"></path><path d="M675 0.7L665 10.7L699 0Z" fill="#767000" stroke="#767000"></path><path d="M629 23.9L661 0L591 0Z" fill="#aa9f18" stroke="#aa9f18"></path><path d="M204 414.7L180 428.6L222 424.7Z" fill="#5d5a00" stroke="#5d5a00"></path><path d="M229 467.4L228 520.6L245 469.3Z" fill="#c6b823" stroke="#c6b823"></path><path d="M191 382.6L180 428.6L204 414.7Z" fill="#464400" stroke="#464400"></path><path d="M125 430.4L180 428.6L191 382.6Z" fill="#5d5a00" stroke="#5d5a00"></path><path d="M140 263.1L204 337.9L169 243.9Z" fill="#ffeb3a" stroke="#ffeb3a"></path><path d="M189 61.9L178 135.3L202 134.7Z" fill="#281b00" stroke="#281b00"></path><path d="M189 61.9L202 134.7L238 74.4Z" fill="#ffeb3a" stroke="#ffeb3a"></path><path d="M799 284.9L798 204.6L766 238.3Z" fill="#000000" stroke="#000000"></path><path d="M516 632.1L561 601.3L472 567.1Z" fill="#281b00" stroke="#281b00"></path><path d="M592 580.3L601 600L631 571.1Z" fill="#5d5a00" stroke="#5d5a00"></path><path d="M516 632.1L472 567.1L469 600Z" fill="#5d5a00" stroke="#5d5a00"></path><path d="M516 632.1L469 600L457 600Z" fill="#ffeb3a" stroke="#ffeb3a"></path><path d="M354 574.3L399 605.1L408 578.3Z" fill="#767000" stroke="#767000"></path><path d="M412 600L399 605.1L457 600Z" fill="#767000" stroke="#767000"></path><path d="M631 571.1L678 547.1L646 542.3Z" fill="#ffeb3a" stroke="#ffeb3a"></path><path d="M723 473.3L741 486.6L764 393.7Z" fill="#ffeb3a" stroke="#ffeb3a"></path><path d="M741 500.1L723 473.3L684 479.4Z" fill="#e2d12f" stroke="#e2d12f"></path><path d="M149 178.7L168 233L172 215.4Z" fill="#464400" stroke="#464400"></path><path d="M168 233L140 263.1L169 243.9Z" fill="#464400" stroke="#464400"></path><path d="M149 178.7L172 215.4L171 173.3Z" fill="#c6b823" stroke="#c6b823"></path><path d="M561 601.3L582 600L592 580.3Z" fill="#aa9f18" stroke="#aa9f18"></path><path d="M631 571.1L653 598.3L678 547.1Z" fill="#342f00" stroke="#342f00"></path><path d="M675 0.7L661 0L665 10.7Z" fill="#000000" stroke="#000000"></path><path d="M665 10.7L661 0L629 23.9Z" fill="#ffeb3a" stroke="#ffeb3a"></path><path d="M591 0L600 -42.1L588 0Z" fill="#90870b" stroke="#90870b"></path><path d="M178 135.3L149 178.7L171 173.3Z" fill="#5d5a00" stroke="#5d5a00"></path><path d="M262 -5.3L279 0L306 0Z" fill="#342f00" stroke="#342f00"></path><path d="M306 0L279 0L314 16.7Z" fill="#464400" stroke="#464400"></path><path d="M516 632.1L601 600L582 600Z" fill="#5d5a00" stroke="#5d5a00"></path><path d="M582 600L601 600L592 580.3Z" fill="#aa9f18" stroke="#aa9f18"></path><path d="M778 371L815 334.6L764 360.6Z" fill="#ffeb3a" stroke="#ffeb3a"></path><path d="M860 216.3L816 176.4L798 204.6Z" fill="#ffeb3a" stroke="#ffeb3a"></path><path d="M829 395.6L778 371L764 393.7Z" fill="#ffeb3a" stroke="#ffeb3a"></path><path d="M699 0L665 10.7L660 59.7Z" fill="#ffeb3a" stroke="#ffeb3a"></path><path d="M678 547.1L741 500.1L684 479.4Z" fill="#ffeb3a" stroke="#ffeb3a"></path><path d="M832 462.1L829 395.6L764 393.7Z" fill="#767000" stroke="#767000"></path><path d="M207 507.1L228 520.6L229 467.4Z" fill="#767000" stroke="#767000"></path><path d="M354 574.3L327 600L399 605.1Z" fill="#c6b823" stroke="#c6b823"></path><path d="M815 334.6L819 321L768 294.7Z" fill="#5d5a00" stroke="#5d5a00"></path><path d="M697 -36.1L600 -42.1L661 0Z" fill="#767000" stroke="#767000"></path><path d="M661 0L600 -42.1L591 0Z" fill="#464400" stroke="#464400"></path><path d="M262 -5.3L258 0L279 0Z" fill="#e2d12f" stroke="#e2d12f"></path><path d="M149 178.7L126 262.4L168 233Z" fill="#c6b823" stroke="#c6b823"></path><path d="M140 263.1L112 311.3L204 337.9Z" fill="#ffeb3a" stroke="#ffeb3a"></path><path d="M180 428.6L207 507.1L229 467.4Z" fill="#aa9f18" stroke="#aa9f18"></path><path d="M234 554.1L318 469.1L228 520.6Z" fill="#aa9f18" stroke="#aa9f18"></path><path d="M270 600L327 600L354 574.3Z" fill="#5d5a00" stroke="#5d5a00"></path><path d="M328 646.1L516 632.1L399 605.1Z" fill="#342f00" stroke="#342f00"></path><path d="M399 605.1L516 632.1L457 600Z" fill="#464400" stroke="#464400"></path><path d="M561 601.3L516 632.1L582 600Z" fill="#aa9f18" stroke="#aa9f18"></path><path d="M262 -5.3L306 0L225 -35.1Z" fill="#767000" stroke="#767000"></path><path d="M279 0L258 0L238 74.4Z" fill="#000000" stroke="#000000"></path><path d="M178 135.3L123 92.7L149 178.7Z" fill="#e2d12f" stroke="#e2d12f"></path><path d="M798 204.6L816 176.4L753 178.6Z" fill="#5d5a00" stroke="#5d5a00"></path><path d="M773 48.6L660 59.7L724 121.6Z" fill="#e2d12f" stroke="#e2d12f"></path><path d="M860 216.3L798 204.6L867 253.9Z" fill="#464400" stroke="#464400"></path><path d="M225 -35.1L353 0L395 -6.1Z" fill="#aa9f18" stroke="#aa9f18"></path><path d="M773 48.6L724 121.6L757 115.3Z" fill="#5d5a00" stroke="#5d5a00"></path><path d="M675 0.7L697 -36.1L661 0Z" fill="#ffeb3a" stroke="#ffeb3a"></path><path d="M95 325L116 287.9L76 329Z" fill="#342f00" stroke="#342f00"></path><path d="M126 262.4L116 287.9L140 263.1Z" fill="#c6b823" stroke="#c6b823"></path><path d="M180 428.6L146 501.1L207 507.1Z" fill="#767000" stroke="#767000"></path><path d="M184 29.6L189 61.9L238 74.4Z" fill="#e2d12f" stroke="#e2d12f"></path><path d="M249 0L238 74.4L258 0Z" fill="#5d5a00" stroke="#5d5a00"></path><path d="M262 -5.3L249 0L258 0Z" fill="#281b00" stroke="#281b00"></path><path d="M601 600L653 598.3L631 571.1Z" fill="#342f00" stroke="#342f00"></path><path d="M678 547.1L704 574.3L741 500.1Z" fill="#c6b823" stroke="#c6b823"></path><path d="M694 606.1L653 598.3L601 600Z" fill="#c6b823" stroke="#c6b823"></path><path d="M207 507.1L234 554.1L228 520.6Z" fill="#ffeb3a" stroke="#ffeb3a"></path><path d="M116 287.9L112 311.3L140 263.1Z" fill="#281b00" stroke="#281b00"></path><path d="M112 311.3L114 354.9L204 337.9Z" fill="#281b00" stroke="#281b00"></path><path d="M207 507.1L145 548.1L234 554.1Z" fill="#000000" stroke="#000000"></path><path d="M832 462.1L764 393.7L741 486.6Z" fill="#000000" stroke="#000000"></path><path d="M815 334.6L882 340.9L819 321Z" fill="#281b00" stroke="#281b00"></path><path d="M867 253.9L798 204.6L799 284.9Z" fill="#90870b" stroke="#90870b"></path><path d="M684 600L704 574.3L678 547.1Z" fill="#5d5a00" stroke="#5d5a00"></path><path d="M823 486.1L832 462.1L741 486.6Z" fill="#ffeb3a" stroke="#ffeb3a"></path><path d="M816 176.4L804 105.4L757 115.3Z" fill="#90870b" stroke="#90870b"></path><path d="M804 105.4L773 48.6L757 115.3Z" fill="#281b00" stroke="#281b00"></path><path d="M234 554.1L270 600L354 574.3Z" fill="#5d5a00" stroke="#5d5a00"></path><path d="M327 600L328 646.1L399 605.1Z" fill="#e2d12f" stroke="#e2d12f"></path><path d="M114 354.9L125 430.4L191 382.6Z" fill="#e2d12f" stroke="#e2d12f"></path><path d="M234 554.1L261 600L270 600Z" fill="#90870b" stroke="#90870b"></path><path d="M694 606.1L684 600L653 598.3Z" fill="#c6b823" stroke="#c6b823"></path><path d="M653 598.3L684 600L678 547.1Z" fill="#ffeb3a" stroke="#ffeb3a"></path><path d="M225 -35.1L217 0L249 0Z" fill="#c6b823" stroke="#c6b823"></path><path d="M249 0L217 0L238 74.4Z" fill="#ffeb3a" stroke="#ffeb3a"></path><path d="M694 606.1L685 600L684 600Z" fill="#281b00" stroke="#281b00"></path><path d="M684 600L685 600L704 574.3Z" fill="#e2d12f" stroke="#e2d12f"></path><path d="M112 311.3L95 325L114 354.9Z" fill="#342f00" stroke="#342f00"></path><path d="M114 354.9L90 410.6L125 430.4Z" fill="#281b00" stroke="#281b00"></path><path d="M116 287.9L95 325L112 311.3Z" fill="#342f00" stroke="#342f00"></path><path d="M76 329L116 287.9L27 279.9Z" fill="#767000" stroke="#767000"></path><path d="M35 220.3L126 262.4L149 178.7Z" fill="#281b00" stroke="#281b00"></path><path d="M236 600L261 600L234 554.1Z" fill="#342f00" stroke="#342f00"></path><path d="M270 600L328 646.1L327 600Z" fill="#c6b823" stroke="#c6b823"></path><path d="M217 0L184 29.6L238 74.4Z" fill="#767000" stroke="#767000"></path><path d="M189 61.9L143 66.6L178 135.3Z" fill="#464400" stroke="#464400"></path><path d="M95 325L96 351.1L114 354.9Z" fill="#c6b823" stroke="#c6b823"></path><path d="M760 0L697 -36.1L699 0Z" fill="#ffeb3a" stroke="#ffeb3a"></path><path d="M699 0L697 -36.1L675 0.7Z" fill="#000000" stroke="#000000"></path><path d="M694 606.1L698 600L685 600Z" fill="#281b00" stroke="#281b00"></path><path d="M685 600L698 600L704 574.3Z" fill="#e2d12f" stroke="#e2d12f"></path><path d="M823 486.1L741 486.6L741 500.1Z" fill="#342f00" stroke="#342f00"></path><path d="M867 253.9L799 284.9L819 321Z" fill="#000000" stroke="#000000"></path><path d="M816 176.4L850 164.7L804 105.4Z" fill="#464400" stroke="#464400"></path><path d="M860 216.3L854 179.3L816 176.4Z" fill="#c6b823" stroke="#c6b823"></path><path d="M787 25.9L760 0L773 48.6Z" fill="#c6b823" stroke="#c6b823"></path><path d="M516 632.1L694 606.1L601 600Z" fill="#ffeb3a" stroke="#ffeb3a"></path><path d="M854 179.3L850 164.7L816 176.4Z" fill="#281b00" stroke="#281b00"></path><path d="M145 25.9L162 44.7L184 29.6Z" fill="#c6b823" stroke="#c6b823"></path><path d="M184 29.6L162 44.7L189 61.9Z" fill="#000000" stroke="#000000"></path><path d="M860 216.3L893 211.6L854 179.3Z" fill="#c6b823" stroke="#c6b823"></path><path d="M882 340.9L867 253.9L819 321Z" fill="#281b00" stroke="#281b00"></path><path d="M261 600L328 646.1L270 600Z" fill="#000000" stroke="#000000"></path><path d="M162 44.7L143 66.6L189 61.9Z" fill="#281b00" stroke="#281b00"></path><path d="M137 503.6L146 501.1L125 430.4Z" fill="#c6b823" stroke="#c6b823"></path><path d="M125 430.4L146 501.1L180 428.6Z" fill="#281b00" stroke="#281b00"></path><path d="M233 600L236 600L234 554.1Z" fill="#c6b823" stroke="#c6b823"></path><path d="M261 600L236 600L328 646.1Z" fill="#aa9f18" stroke="#aa9f18"></path><path d="M143 66.6L123 92.7L178 135.3Z" fill="#342f00" stroke="#342f00"></path><path d="M773 48.6L760 0L699 0Z" fill="#e2d12f" stroke="#e2d12f"></path><path d="M787 25.9L773 48.6L804 105.4Z" fill="#aa9f18" stroke="#aa9f18"></path><path d="M823 486.1L741 500.1L798 545.3Z" fill="#767000" stroke="#767000"></path><path d="M829 395.6L882 340.9L815 334.6Z" fill="#90870b" stroke="#90870b"></path><path d="M741 500.1L704 574.3L798 545.3Z" fill="#5d5a00" stroke="#5d5a00"></path><path d="M175 592.3L233 600L234 554.1Z" fill="#ffeb3a" stroke="#ffeb3a"></path><path d="M236 600L233 600L328 646.1Z" fill="#000000" stroke="#000000"></path><path d="M95 325L76 329L96 351.1Z" fill="#000000" stroke="#000000"></path><path d="M96 351.1L90 410.6L114 354.9Z" fill="#281b00" stroke="#281b00"></path><path d="M27 279.9L116 287.9L126 262.4Z" fill="#5d5a00" stroke="#5d5a00"></path><path d="M847 15.7L787 25.9L804 105.4Z" fill="#5d5a00" stroke="#5d5a00"></path><path d="M262 -5.3L225 -35.1L249 0Z" fill="#ffeb3a" stroke="#ffeb3a"></path><path d="M217 0L181 -14.1L184 29.6Z" fill="#281b00" stroke="#281b00"></path><path d="M162 44.7L145 25.9L143 66.6Z" fill="#000000" stroke="#000000"></path><path d="M600 -42.1L225 -35.1L395 -6.1Z" fill="#281b00" stroke="#281b00"></path><path d="M724 600L704 574.3L698 600Z" fill="#767000" stroke="#767000"></path><path d="M694 606.1L724 600L698 600Z" fill="#aa9f18" stroke="#aa9f18"></path><path d="M92 417.9L137 503.6L125 430.4Z" fill="#aa9f18" stroke="#aa9f18"></path><path d="M146 501.1L145 548.1L207 507.1Z" fill="#767000" stroke="#767000"></path><path d="M70 418.4L90 410.6L30 380.7Z" fill="#5d5a00" stroke="#5d5a00"></path><path d="M90 410.6L92 417.9L125 430.4Z" fill="#e2d12f" stroke="#e2d12f"></path><path d="M900 326.9L882 340.9L900 365Z" fill="#aa9f18" stroke="#aa9f18"></path><path d="M900 365L882 340.9L829 395.6Z" fill="#90870b" stroke="#90870b"></path><path d="M225 -35.1L181 -14.1L217 0Z" fill="#342f00" stroke="#342f00"></path><path d="M143 66.6L121 47.6L123 92.7Z" fill="#342f00" stroke="#342f00"></path><path d="M776 600L798 545.3L704 574.3Z" fill="#aa9f18" stroke="#aa9f18"></path><path d="M181 -14.1L145 25.9L184 29.6Z" fill="#000000" stroke="#000000"></path><path d="M83 79.6L92 112.6L123 92.7Z" fill="#c6b823" stroke="#c6b823"></path><path d="M123 92.7L92 112.6L149 178.7Z" fill="#5d5a00" stroke="#5d5a00"></path><path d="M100 531.4L135 526.6L137 503.6Z" fill="#aa9f18" stroke="#aa9f18"></path><path d="M137 503.6L135 526.6L146 501.1Z" fill="#767000" stroke="#767000"></path><path d="M900 326.9L893 211.6L867 253.9Z" fill="#464400" stroke="#464400"></path><path d="M867 253.9L893 211.6L860 216.3Z" fill="#5d5a00" stroke="#5d5a00"></path><path d="M854 179.3L900 158.1L850 164.7Z" fill="#281b00" stroke="#281b00"></path><path d="M850 164.7L864 111.9L804 105.4Z" fill="#464400" stroke="#464400"></path><path d="M900 133.3L864 111.9L850 164.7Z" fill="#aa9f18" stroke="#aa9f18"></path><path d="M83 79.6L121 47.6L66 0Z" fill="#c6b823" stroke="#c6b823"></path><path d="M145 25.9L121 47.6L143 66.6Z" fill="#464400" stroke="#464400"></path><path d="M135 526.6L145 548.1L146 501.1Z" fill="#aa9f18" stroke="#aa9f18"></path><path d="M900 365L829 395.6L906 417.4Z" fill="#ffeb3a" stroke="#ffeb3a"></path><path d="M882 340.9L900 326.9L867 253.9Z" fill="#281b00" stroke="#281b00"></path><path d="M829 395.6L900 443.6L906 417.4Z" fill="#90870b" stroke="#90870b"></path><path d="M42 505.3L100 531.4L137 503.6Z" fill="#c6b823" stroke="#c6b823"></path><path d="M100 531.4L138 565.4L145 548.1Z" fill="#ffeb3a" stroke="#ffeb3a"></path><path d="M90 410.6L70 418.4L92 417.9Z" fill="#767000" stroke="#767000"></path><path d="M30 380.7L90 410.6L96 351.1Z" fill="#e2d12f" stroke="#e2d12f"></path><path d="M847 15.7L799 0L787 25.9Z" fill="#000000" stroke="#000000"></path><path d="M787 25.9L799 0L760 0Z" fill="#464400" stroke="#464400"></path><path d="M760 0L799 0L697 -36.1Z" fill="#c6b823" stroke="#c6b823"></path><path d="M145 548.1L175 592.3L234 554.1Z" fill="#767000" stroke="#767000"></path><path d="M233 600L83 651.1L328 646.1Z" fill="#ffeb3a" stroke="#ffeb3a"></path><path d="M862 483.4L832 462.1L823 486.1Z" fill="#90870b" stroke="#90870b"></path><path d="M798 545.3L862 483.4L823 486.1Z" fill="#e2d12f" stroke="#e2d12f"></path><path d="M724 600L776 600L704 574.3Z" fill="#c6b823" stroke="#c6b823"></path><path d="M904 526.3L900 503.3L900 534.1Z" fill="#aa9f18" stroke="#aa9f18"></path><path d="M694 606.1L776 600L724 600Z" fill="#342f00" stroke="#342f00"></path><path d="M883 600L776 600L694 606.1Z" fill="#281b00" stroke="#281b00"></path><path d="M60 81.9L83 79.6L32 53.9Z" fill="#5d5a00" stroke="#5d5a00"></path><path d="M121 47.6L83 79.6L123 92.7Z" fill="#000000" stroke="#000000"></path><path d="M92 112.6L35 220.3L149 178.7Z" fill="#c6b823" stroke="#c6b823"></path><path d="M76 329L30 380.7L96 351.1Z" fill="#5d5a00" stroke="#5d5a00"></path><path d="M100 531.4L145 548.1L135 526.6Z" fill="#c6b823" stroke="#c6b823"></path><path d="M145 548.1L138 565.4L175 592.3Z" fill="#281b00" stroke="#281b00"></path><path d="M900 111.6L872 86.4L864 111.9Z" fill="#ffeb3a" stroke="#ffeb3a"></path><path d="M864 111.9L872 86.4L804 105.4Z" fill="#000000" stroke="#000000"></path><path d="M893 211.6L900 158.1L854 179.3Z" fill="#767000" stroke="#767000"></path><path d="M926 348.1L900 158.1L893 211.6Z" fill="#90870b" stroke="#90870b"></path><path d="M0 187.4L35 220.3L0 155.7Z" fill="#c6b823" stroke="#c6b823"></path><path d="M35 220.3L27 279.9L126 262.4Z" fill="#281b00" stroke="#281b00"></path><path d="M900 158.1L900 133.3L850 164.7Z" fill="#ffeb3a" stroke="#ffeb3a"></path><path d="M42 505.3L92 417.9L70 418.4Z" fill="#ffeb3a" stroke="#ffeb3a"></path><path d="M42 505.3L137 503.6L92 417.9Z" fill="#000000" stroke="#000000"></path><path d="M900 443.6L829 395.6L832 462.1Z" fill="#e2d12f" stroke="#e2d12f"></path><path d="M900 365L926 348.1L900 326.9Z" fill="#464400" stroke="#464400"></path><path d="M900 326.9L926 348.1L893 211.6Z" fill="#aa9f18" stroke="#aa9f18"></path><path d="M900 158.1L908 53.9L900 133.3Z" fill="#5d5a00" stroke="#5d5a00"></path><path d="M900 448.7L832 462.1L862 483.4Z" fill="#90870b" stroke="#90870b"></path><path d="M900 448.7L900 443.6L832 462.1Z" fill="#aa9f18" stroke="#aa9f18"></path><path d="M35 220.3L23 231.1L27 279.9Z" fill="#ffeb3a" stroke="#ffeb3a"></path><path d="M0 242.3L23 231.1L0 214Z" fill="#281b00" stroke="#281b00"></path><path d="M913 413.4L900 365L906 417.4Z" fill="#c6b823" stroke="#c6b823"></path><path d="M913 413.4L926 348.1L900 365Z" fill="#e2d12f" stroke="#e2d12f"></path><path d="M850 0L847 15.7L897 0Z" fill="#5d5a00" stroke="#5d5a00"></path><path d="M872 86.4L847 15.7L804 105.4Z" fill="#000000" stroke="#000000"></path><path d="M799 0L850 0L697 -36.1Z" fill="#342f00" stroke="#342f00"></path><path d="M900 456.4L900 448.7L862 483.4Z" fill="#e2d12f" stroke="#e2d12f"></path><path d="M928 436.7L913 413.4L906 417.4Z" fill="#767000" stroke="#767000"></path><path d="M0 308.7L76 329L27 279.9Z" fill="#464400" stroke="#464400"></path><path d="M0 335.1L30 380.7L76 329Z" fill="#342f00" stroke="#342f00"></path><path d="M908 53.9L900 111.6L900 133.3Z" fill="#aa9f18" stroke="#aa9f18"></path><path d="M900 133.3L900 111.6L864 111.9Z" fill="#767000" stroke="#767000"></path><path d="M928 436.7L906 417.4L900 443.6Z" fill="#342f00" stroke="#342f00"></path><path d="M900 503.3L900 456.4L862 483.4Z" fill="#464400" stroke="#464400"></path><path d="M900 448.7L928 436.7L900 443.6Z" fill="#464400" stroke="#464400"></path><path d="M66 0L121 47.6L145 25.9Z" fill="#464400" stroke="#464400"></path><path d="M83 79.6L60 81.9L92 112.6Z" fill="#767000" stroke="#767000"></path><path d="M900 60.9L847 15.7L872 86.4Z" fill="#000000" stroke="#000000"></path><path d="M847 15.7L850 0L799 0Z" fill="#342f00" stroke="#342f00"></path><path d="M60 81.9L42 102.7L92 112.6Z" fill="#e2d12f" stroke="#e2d12f"></path><path d="M908 53.9L900 80.4L900 111.6Z" fill="#342f00" stroke="#342f00"></path><path d="M900 111.6L900 80.4L872 86.4Z" fill="#342f00" stroke="#342f00"></path><path d="M0 242.3L27 279.9L23 231.1Z" fill="#90870b" stroke="#90870b"></path><path d="M0 242.3L0 276.9L27 279.9Z" fill="#281b00" stroke="#281b00"></path><path d="M-4 292.7L0 308.7L27 279.9Z" fill="#ffeb3a" stroke="#ffeb3a"></path><path d="M0 214L23 231.1L35 220.3Z" fill="#000000" stroke="#000000"></path><path d="M908 53.9L900 60.9L900 80.4Z" fill="#464400" stroke="#464400"></path><path d="M900 80.4L900 60.9L872 86.4Z" fill="#000000" stroke="#000000"></path><path d="M0 308.7L0 335.1L76 329Z" fill="#767000" stroke="#767000"></path><path d="M0 430.4L42 505.3L70 418.4Z" fill="#aa9f18" stroke="#aa9f18"></path><path d="M900 503.3L928 436.7L900 456.4Z" fill="#342f00" stroke="#342f00"></path><path d="M900 456.4L928 436.7L900 448.7Z" fill="#e2d12f" stroke="#e2d12f"></path><path d="M913 413.4L928 436.7L926 348.1Z" fill="#342f00" stroke="#342f00"></path><path d="M900 503.3L862 483.4L900 534.1Z" fill="#90870b" stroke="#90870b"></path><path d="M0 276.9L-4 292.7L27 279.9Z" fill="#aa9f18" stroke="#aa9f18"></path><path d="M0 308.7L-3 330.1L0 335.1Z" fill="#c6b823" stroke="#c6b823"></path><path d="M0 242.3L-4 292.7L0 276.9Z" fill="#342f00" stroke="#342f00"></path><path d="M0 208.6L0 214L35 220.3Z" fill="#5d5a00" stroke="#5d5a00"></path><path d="M0 242.3L0 214L-4 292.7Z" fill="#464400" stroke="#464400"></path><path d="M0 187.4L0 208.6L35 220.3Z" fill="#aa9f18" stroke="#aa9f18"></path><path d="M0 214L-48 446.3L-4 292.7Z" fill="#464400" stroke="#464400"></path><path d="M-4 292.7L-3 330.1L0 308.7Z" fill="#5d5a00" stroke="#5d5a00"></path><path d="M0 335.1L0 364.6L30 380.7Z" fill="#ffeb3a" stroke="#ffeb3a"></path><path d="M-3 330.1L0 364.6L0 335.1Z" fill="#c6b823" stroke="#c6b823"></path><path d="M0 155.7L35 220.3L92 112.6Z" fill="#aa9f18" stroke="#aa9f18"></path><path d="M0 208.6L-48 446.3L0 214Z" fill="#342f00" stroke="#342f00"></path><path d="M0 430.4L70 418.4L30 380.7Z" fill="#ffeb3a" stroke="#ffeb3a"></path><path d="M100 531.4L72 600L138 565.4Z" fill="#281b00" stroke="#281b00"></path><path d="M138 565.4L83 651.1L175 592.3Z" fill="#5d5a00" stroke="#5d5a00"></path><path d="M926 348.1L908 53.9L900 158.1Z" fill="#281b00" stroke="#281b00"></path><path d="M900 60.9L900 16.7L847 15.7Z" fill="#342f00" stroke="#342f00"></path><path d="M42 102.7L0 155.7L92 112.6Z" fill="#90870b" stroke="#90870b"></path><path d="M0 187.4L-48 446.3L0 208.6Z" fill="#000000" stroke="#000000"></path><path d="M900 534.1L862 483.4L798 545.3Z" fill="#e2d12f" stroke="#e2d12f"></path><path d="M900 503.3L904 526.3L928 436.7Z" fill="#464400" stroke="#464400"></path><path d="M883 600L900 534.1L798 545.3Z" fill="#464400" stroke="#464400"></path><path d="M60 81.9L32 53.9L42 102.7Z" fill="#5d5a00" stroke="#5d5a00"></path><path d="M42 102.7L0 131.9L0 155.7Z" fill="#767000" stroke="#767000"></path><path d="M181 -14.1L66 0L145 25.9Z" fill="#e2d12f" stroke="#e2d12f"></path><path d="M225 -35.1L66 0L181 -14.1Z" fill="#464400" stroke="#464400"></path><path d="M66 0L32 53.9L83 79.6Z" fill="#c6b823" stroke="#c6b823"></path><path d="M32 53.9L0 131.9L42 102.7Z" fill="#e2d12f" stroke="#e2d12f"></path><path d="M0 155.7L-48 446.3L0 187.4Z" fill="#c6b823" stroke="#c6b823"></path><path d="M0 364.6L0 430.4L30 380.7Z" fill="#5d5a00" stroke="#5d5a00"></path><path d="M-48 446.3L0 430.4L0 364.6Z" fill="#464400" stroke="#464400"></path><path d="M908 53.9L900 16.7L900 60.9Z" fill="#464400" stroke="#464400"></path><path d="M66 0L54 0L32 53.9Z" fill="#5d5a00" stroke="#5d5a00"></path><path d="M32 53.9L0 0L0 131.9Z" fill="#e2d12f" stroke="#e2d12f"></path><path d="M225 -35.1L54 0L66 0Z" fill="#5d5a00" stroke="#5d5a00"></path><path d="M900 0L897 0L900 16.7Z" fill="#464400" stroke="#464400"></path><path d="M900 16.7L897 0L847 15.7Z" fill="#464400" stroke="#464400"></path><path d="M850 0L897 0L697 -36.1Z" fill="#281b00" stroke="#281b00"></path><path d="M908 53.9L900 0L900 16.7Z" fill="#aa9f18" stroke="#aa9f18"></path><path d="M897 0L900 0L697 -36.1Z" fill="#c6b823" stroke="#c6b823"></path><path d="M25 545.1L100 531.4L42 505.3Z" fill="#767000" stroke="#767000"></path><path d="M25 545.1L72 600L100 531.4Z" fill="#c6b823" stroke="#c6b823"></path><path d="M175 592.3L83 651.1L233 600Z" fill="#767000" stroke="#767000"></path><path d="M776 600L883 600L798 545.3Z" fill="#ffeb3a" stroke="#ffeb3a"></path><path d="M900 534.1L900 600L904 526.3Z" fill="#464400" stroke="#464400"></path><path d="M516 632.1L883 600L694 606.1Z" fill="#342f00" stroke="#342f00"></path><path d="M0 510.3L25 545.1L42 505.3Z" fill="#464400" stroke="#464400"></path><path d="M-48 446.3L0 503.1L0 430.4Z" fill="#aa9f18" stroke="#aa9f18"></path><path d="M0 430.4L0 503.1L42 505.3Z" fill="#90870b" stroke="#90870b"></path><path d="M0 510.3L0 503.1L-48 446.3Z" fill="#000000" stroke="#000000"></path><path d="M38 600L55 600L25 545.1Z" fill="#ffeb3a" stroke="#ffeb3a"></path><path d="M25 545.1L55 600L72 600Z" fill="#5d5a00" stroke="#5d5a00"></path><path d="M72 600L83 651.1L138 565.4Z" fill="#281b00" stroke="#281b00"></path><path d="M-48 446.3L0 364.6L-3 330.1Z" fill="#000000" stroke="#000000"></path><path d="M0 503.1L0 510.3L42 505.3Z" fill="#e2d12f" stroke="#e2d12f"></path><path d="M516 632.1L900 600L883 600Z" fill="#342f00" stroke="#342f00"></path><path d="M883 600L900 600L900 534.1Z" fill="#ffeb3a" stroke="#ffeb3a"></path><path d="M904 526.3L900 600L928 436.7Z" fill="#767000" stroke="#767000"></path><path d="M225 -35.1L23 0L54 0Z" fill="#000000" stroke="#000000"></path><path d="M54 0L23 0L32 53.9Z" fill="#464400" stroke="#464400"></path><path d="M38 600L83 651.1L55 600Z" fill="#000000" stroke="#000000"></path><path d="M55 600L83 651.1L72 600Z" fill="#c6b823" stroke="#c6b823"></path><path d="M0 600L38 600L25 545.1Z" fill="#90870b" stroke="#90870b"></path><path d="M-4 292.7L-48 446.3L-3 330.1Z" fill="#90870b" stroke="#90870b"></path><path d="M0 510.3L0 600L25 545.1Z" fill="#000000" stroke="#000000"></path><path d="M0 131.9L-48 446.3L0 155.7Z" fill="#aa9f18" stroke="#aa9f18"></path><path d="M23 0L0 0L32 53.9Z" fill="#464400" stroke="#464400"></path><path d="M0 131.9L0 0L-48 446.3Z" fill="#767000" stroke="#767000"></path><path d="M225 -35.1L0 0L23 0Z" fill="#281b00" stroke="#281b00"></path><path d="M-48 446.3L0 600L0 510.3Z" fill="#ffeb3a" stroke="#ffeb3a"></path><path d="M38 600L0 600L83 651.1Z" fill="#5d5a00" stroke="#5d5a00"></path></g></svg>